<?xml version="1.0" encoding="UTF-8"?>
<svg id="Layer_1" data-name="Layer 1" xmlns="http://www.w3.org/2000/svg" viewBox="0 0 1080 1350">
  <defs>
    <style>
      .cls-1 {
        fill: #fff;
        stroke-width: 0px;
      }
    </style>
  </defs>
  <path class="cls-1" d="m593.18,221.8c49.92,47.62,77.42,112.36,77.42,182.23v474.9h-136.6v130.29h201.6l65.28-.1V404.03c0-104.3-42.93-205.1-117.74-276.48C608.54,56.33,510.79,19.78,407.69,24.62,208.49,33.91,52.14,196.46,50.05,395.56l-.03,4.05h130.29c0-131.18,102.55-238.73,233.45-244.87,67.17-3.12,130.84,20.67,179.42,67.06Z"/>
  <path class="cls-1" d="m899.7,950.38c0,131.25-102.58,238.8-233.56,244.87-67.06,3.12-130.84-20.71-179.39-67.06-49.85-47.62-77.32-112.29-77.32-182.09v-356.78c0-8.5,6.89-15.39,15.36-15.39h148.56c8.5,0,15.39-6.89,15.39-15.36v-99.53c0-8.5-6.89-15.39-15.39-15.39h-148.56c-8.47,0-15.36-6.89-15.36-15.36v-109.75c0-8.5-6.89-15.36-15.39-15.36h-99.53c-8.47,0-15.36,6.86-15.36,15.36v627.57c0,104.23,42.86,204.93,117.64,276.31,70.22,67.06,161.08,103.41,257.52,103.41,5.93,0,11.9-.14,17.86-.41,199.31-9.26,355.69-171.81,357.78-370.98l.03-4.05h-130.29Z"/>
</svg>